Coordinates
version=1
nRows=17
nColumns=33
inDegrees=yes

Units are S.I. units (second, meters, Newtons, ...)
Angles are in degrees.

endheader
time	ground_thorax_rot_x	ground_thorax_rot_y	ground_thorax_rot_z	ground_thorax_tx	ground_thorax_ty	ground_thorax_tz	clav_prot_r	clav_elev_r	scapula_abduction_r	scapula_elevation_r	scapula_upward_rot_r	scapula_winging_r	shoulder_elv_r	plane_of_elev_r	axial_rot_r	elbow_flexion_r	pro_sup_r	wrist_flex_r	wrist_dev_r	clav_prot_l	clav_elev_l	scapula_abduction_l	scapula_elevation_l	scapula_upward_rot_l	scapula_winging_l	shoulder_elv_l	plane_of_elev_l	axial_rot_l	elbow_flexion_l	pro_sup_l	wrist_flex_l	wrist_dev_l	
8.8200	37.870298	21.313339	19.390761	-207.169827	840.169220	5.100460	13.430354	45.000000	45.000000	45.000000	45.000000	-3264.688215	-1236.588921	-90.000000	-89.414455	2155.779308	-123.167954	21.219332	16.600758	12.455403	-45.000000	-41.464442	45.000000	-45.000000	2260.132582	-2083.241434	21.141785	-55.545872	1451.021143	7.169018	6.054502	-20.749083	
8.8300	37.965466	21.043251	19.109314	-209.076648	841.196221	5.063340	13.421845	45.000000	45.000000	45.000000	45.000000	-3264.580260	-1236.341448	-90.000000	-89.642195	2155.963875	-123.186603	21.299725	16.566466	12.425930	-45.000000	-41.401451	45.000000	-45.000000	2260.306072	-2083.146997	21.082254	-55.895344	1451.046576	7.159774	5.953836	-20.749312	
8.8400	38.051008	20.775554	18.837836	-210.931896	842.156736	5.032112	13.415122	45.000000	45.000000	45.000000	45.000000	-3264.484332	-1236.102076	-90.000000	-89.862318	2156.140040	-123.198339	21.382328	16.530819	12.388210	-45.000000	-41.339093	45.000000	-45.000000	2260.470232	-2083.056188	21.023282	-56.202810	1451.071259	7.234061	5.846259	-20.748841	
8.8500	38.126681	20.512575	18.583345	-212.734038	843.049324	5.006579	13.409958	45.000000	45.000000	45.000000	45.000000	-3264.399637	-1235.870743	-90.000000	-90.074946	2156.307759	-123.206352	21.465289	16.495602	12.347545	-45.000000	-41.274053	45.000000	-45.000000	2260.632555	-2082.968174	20.965302	-56.494547	1451.103987	7.394891	5.736250	-20.750422	
8.8600	38.194642	20.252505	18.340302	-214.480814	843.872533	4.986903	13.406641	45.000000	45.000000	45.000000	45.000000	-3264.322441	-1235.643322	-90.000000	-90.284260	2156.472379	-123.213370	21.546444	16.462018	12.301798	-45.000000	-41.207311	45.000000	-45.000000	2260.786859	-2082.887617	20.909579	-56.756402	1451.136812	7.639281	5.622151	-20.751833	
8.8700	38.254878	19.998041	18.109009	-216.169419	844.625024	4.973759	13.405399	45.000000	45.000000	45.000000	45.000000	-3264.253284	-1235.414045	-90.000000	-90.496043	2156.637809	-123.222078	21.624564	16.430897	12.249852	-45.000000	-41.140148	45.000000	-45.000000	2260.932205	-2082.814713	20.855891	-56.982338	1451.170285	7.961185	5.502849	-20.752885	
8.8800	38.309387	19.746960	17.883656	-217.796890	845.305825	4.968359	13.406298	45.000000	45.000000	45.000000	45.000000	-3264.189180	-1235.178426	-90.000000	-90.714722	2156.810630	-123.234122	21.694425	16.401345	12.190301	-45.000000	-41.071528	45.000000	-45.000000	2261.062457	-2082.752882	20.806059	-57.157426	1451.194519	8.351699	5.372318	-20.750224	
8.8900	38.356846	19.502487	17.670355	-219.360513	845.914715	4.972260	13.409360	45.000000	45.000000	45.000000	45.000000	-3264.132554	-1234.933919	-90.000000	-90.942816	2156.993029	-123.251546	21.754506	16.374125	12.126946	-45.000000	-41.000433	45.000000	-45.000000	2261.183786	-2082.698851	20.759790	-57.300427	1451.218686	8.804310	5.235627	-20.746510	
8.9000	38.400157	19.261314	17.464214	-220.858089	846.452630	4.987079	13.414499	45.000000	45.000000	45.000000	45.000000	-3264.079859	-1234.679716	-90.000000	-91.181062	2157.189354	-123.275402	21.799533	16.347917	12.060755	-45.000000	-40.925793	45.000000	-45.000000	2261.291727	-2082.656607	20.718384	-57.404069	1451.234456	9.310255	5.090721	-20.739234	
8.9100	38.438567	19.025888	17.270902	-222.288296	846.922124	5.014136	13.421744	45.000000	45.000000	45.000000	45.000000	-3264.031581	-1234.416349	-90.000000	-91.428892	2157.398749	-123.307453	21.830341	16.323439	11.994062	-45.000000	-40.848949	45.000000	-45.000000	2261.390809	-2082.623157	20.680316	-57.482333	1451.248916	9.861935	4.943441	-20.730789	
8.9200	38.472824	18.795304	17.090586	-223.650738	847.327682	5.054162	13.431026	45.000000	45.000000	45.000000	45.000000	-3263.986202	-1234.144849	-90.000000	-91.685218	2157.621087	-123.348795	21.846292	16.300493	11.928553	-45.000000	-40.770067	45.000000	-45.000000	2261.480754	-2082.599083	20.645166	-57.535770	1451.259774	10.451001	4.795114	-20.720536	
8.9300	38.500486	18.572535	16.925044	-224.945831	847.675805	5.107107	13.442592	45.000000	45.000000	45.000000	45.000000	-3263.948733	-1233.866150	-90.000000	-91.949160	2157.852336	-123.401023	21.854034	16.280891	11.862121	-45.000000	-40.695248	45.000000	-45.000000	2261.564619	-2082.577712	20.610772	-57.580132	1451.276834	11.067999	4.653666	-20.711897	
8.9400	38.526909	18.352623	16.767790	-226.174597	847.974857	5.172103	13.456302	45.000000	45.000000	45.000000	45.000000	-3263.912608	-1233.583105	-90.000000	-92.217849	2158.091661	-123.463719	21.851598	16.263013	11.794569	-45.000000	-40.621649	45.000000	-45.000000	2261.637175	-2082.566209	20.578487	-57.596213	1451.291391	11.700415	4.513496	-20.701191	
8.9500	38.552493	18.136890	16.617444	-227.338639	848.234707	5.247542	13.471979	45.000000	45.000000	45.000000	45.000000	-3263.877773	-1233.298790	-90.000000	-92.488252	2158.335814	-123.536521	21.842651	16.247526	11.726874	-45.000000	-40.550293	45.000000	-45.000000	2261.701145	-2082.561566	20.550117	-57.598224	1451.307178	12.339475	4.377973	-20.689653	
8.9600	38.580785	17.923336	16.472436	-228.440028	848.466120	5.331249	13.489209	45.000000	45.000000	45.000000	45.000000	-3263.838951	-1233.016808	-90.000000	-92.756774	2158.583131	-123.617968	21.827071	16.234022	11.660994	-45.000000	-40.476856	45.000000	-45.000000	2261.756247	-2082.568461	20.526270	-57.582591	1451.321353	12.976457	4.244164	-20.674998	
8.9700	38.609338	17.713851	16.332057	-229.481508	848.680046	5.420728	13.507602	45.000000	45.000000	45.000000	45.000000	-3263.799475	-1232.739180	-90.000000	-93.021397	2158.831752	-123.706491	21.807628	16.222765	11.597881	-45.000000	-40.404141	45.000000	-45.000000	2261.804253	-2082.582524	20.508021	-57.554285	1451.334572	13.605990	4.113357	-20.657234	
8.9800	38.640131	17.505715	16.198157	-230.466322	848.886758	5.513361	13.526461	45.000000	45.000000	45.000000	45.000000	-3263.754711	-1232.469590	-90.000000	-93.278383	2159.079357	-123.799759	21.783829	16.212900	11.540532	-45.000000	-40.327584	45.000000	-45.000000	2261.847902	-2082.605670	20.495589	-57.511110	1451.346355	14.225181	3.981200	-20.634577	
